<svg viewBox="0 0 32 32" xmlns="http://www.w3.org/2000/svg"><g data-name="07-phone"><path d="M13 31H9a2 2 0 0 1-2-2V3a2 2 0 0 1 2-2h14a2 2 0 0 1 2 2v12" fill="none" stroke="#ffffff" stroke-linecap="round" stroke-linejoin="round" stroke-width="2px" class="stroke-000000"></path><path d="M20 1v2a2 2 0 0 1-2 2h-4a2 2 0 0 1-2-2V1M16 29a2 2 0 0 0 2 2h8a2 2 0 0 0 2-2v-5l3 3M28 24l-3 3M28 21a2 2 0 0 0-2-2h-8a2 2 0 0 0-2 2v5l-3-3M16 26l3-3" fill="none" stroke="#ffffff" stroke-linecap="round" stroke-linejoin="round" stroke-width="2px" class="stroke-000000"></path></g></svg>